<?xml version="1.0" standalone="no"?><!-- Generator: Gravit.io --><svg xmlns="http://www.w3.org/2000/svg" xmlns:xlink="http://www.w3.org/1999/xlink" style="isolation:isolate" viewBox="0 0 512 512" width="512" height="512"><defs><clipPath id="_clipPath_HakffLTtt5l1cvFgmlJkbvPj7d8oo5Gn"><rect width="512" height="512"/></clipPath></defs><g clip-path="url(#_clipPath_HakffLTtt5l1cvFgmlJkbvPj7d8oo5Gn)"><g style="isolation:isolate" id="Layer 0"/><g id="Group"><rect x="0.751" y="0" width="512" height="486.4" transform="matrix(1,0,0,1,0,0)" fill="rgb(46,46,46)"/><g id="Group" style="opacity:0.16;"><rect x="0.751" y="0" width="34.166" height="493.568" transform="matrix(1,0,0,1,0,0)" fill="rgb(244,67,54)"/><rect x="34.882" y="0" width="34.166" height="493.568" transform="matrix(1,0,0,1,0,0)" fill="rgb(233,30,99)"/><rect x="69.013" y="0" width="34.166" height="493.568" transform="matrix(1,0,0,1,0,0)" fill="rgb(156,39,176)"/><rect x="103.144" y="0" width="34.166" height="493.568" transform="matrix(1,0,0,1,0,0)" fill="rgb(63,81,181)"/><rect x="137.275" y="0" width="34.166" height="493.568" transform="matrix(1,0,0,1,0,0)" fill="rgb(33,150,243)"/><rect x="171.406" y="0" width="34.166" height="493.568" transform="matrix(1,0,0,1,0,0)" fill="rgb(3,169,244)"/><rect x="205.537" y="0" width="34.166" height="493.568" transform="matrix(1,0,0,1,0,0)" fill="rgb(0,188,212)"/><rect x="239.668" y="0" width="34.166" height="493.568" transform="matrix(1,0,0,1,0,0)" fill="rgb(0,150,136)"/><rect x="273.799" y="0" width="34.166" height="493.568" transform="matrix(1,0,0,1,0,0)" fill="rgb(76,175,80)"/><rect x="307.93" y="0" width="34.166" height="493.568" transform="matrix(1,0,0,1,0,0)" fill="rgb(139,195,74)"/><rect x="342.061" y="0" width="34.166" height="493.568" transform="matrix(1,0,0,1,0,0)" fill="rgb(205,220,57)"/><rect x="376.192" y="0" width="34.166" height="493.568" transform="matrix(1,0,0,1,0,0)" fill="rgb(255,235,59)"/><rect x="410.323" y="0" width="34.166" height="493.568" transform="matrix(1,0,0,1,0,0)" fill="rgb(255,193,7)"/><rect x="444.454" y="0" width="34.166" height="493.568" transform="matrix(1,0,0,1,0,0)" fill="rgb(255,152,0)"/><rect x="478.585" y="0" width="34.166" height="493.568" transform="matrix(1,0,0,1,0,0)" fill="rgb(255,87,34)"/></g><path d=" M 81.564 445.47 L 75.351 445.47 L 73.63 441.037 L 73.397 441.037 L 73.397 441.037 Q 71.151 443.866 68.774 444.96 L 68.774 444.96 L 68.774 444.96 Q 66.397 446.054 62.576 446.054 L 62.576 446.054 L 62.576 446.054 Q 57.88 446.054 55.183 443.37 L 55.183 443.37 L 55.183 443.37 Q 52.485 440.687 52.485 435.729 L 52.485 435.729 L 52.485 435.729 Q 52.485 430.537 56.116 428.073 L 56.116 428.073 L 56.116 428.073 Q 59.747 425.608 67.068 425.345 L 67.068 425.345 L 72.726 425.17 L 72.726 423.741 L 72.726 423.741 Q 72.726 418.783 67.651 418.783 L 67.651 418.783 L 67.651 418.783 Q 63.743 418.783 58.464 421.145 L 58.464 421.145 L 55.518 415.137 L 55.518 415.137 Q 61.147 412.191 68.001 412.191 L 68.001 412.191 L 68.001 412.191 Q 74.564 412.191 78.064 415.05 L 78.064 415.05 L 78.064 415.05 Q 81.564 417.908 81.564 423.741 L 81.564 423.741 L 81.564 445.47 L 81.564 445.47 Z  M 72.726 433.045 L 72.726 430.362 L 69.285 430.479 L 69.285 430.479 Q 65.405 430.595 63.51 431.879 L 63.51 431.879 L 63.51 431.879 Q 61.614 433.162 61.614 435.787 L 61.614 435.787 L 61.614 435.787 Q 61.614 439.55 65.93 439.55 L 65.93 439.55 L 65.93 439.55 Q 69.022 439.55 70.874 437.77 L 70.874 437.77 L 70.874 437.77 Q 72.726 435.991 72.726 433.045 L 72.726 433.045 L 72.726 433.045 Z  M 99.618 400.087 L 99.618 445.47 L 90.722 445.47 L 90.722 400.087 L 99.618 400.087 L 99.618 400.087 Z  M 117.847 400.087 L 117.847 445.47 L 108.951 445.47 L 108.951 400.087 L 117.847 400.087 L 117.847 400.087 Z  M 140.685 418.579 L 140.685 418.579 L 140.685 418.579 Q 137.855 418.579 136.251 420.373 L 136.251 420.373 L 136.251 420.373 Q 134.647 422.166 134.414 425.462 L 134.414 425.462 L 146.897 425.462 L 146.897 425.462 Q 146.839 422.166 145.176 420.373 L 145.176 420.373 L 145.176 420.373 Q 143.514 418.579 140.685 418.579 Z  M 141.939 446.054 L 141.939 446.054 L 141.939 446.054 Q 134.064 446.054 129.63 441.708 L 129.63 441.708 L 129.63 441.708 Q 125.197 437.362 125.197 429.4 L 125.197 429.4 L 125.197 429.4 Q 125.197 421.204 129.295 416.727 L 129.295 416.727 L 129.295 416.727 Q 133.393 412.25 140.626 412.25 L 140.626 412.25 L 140.626 412.25 Q 147.539 412.25 151.389 416.187 L 151.389 416.187 L 151.389 416.187 Q 155.239 420.125 155.239 427.066 L 155.239 427.066 L 155.239 431.383 L 134.21 431.383 L 134.21 431.383 Q 134.355 435.175 136.455 437.304 L 136.455 437.304 L 136.455 437.304 Q 138.555 439.433 142.347 439.433 L 142.347 439.433 L 142.347 439.433 Q 145.293 439.433 147.918 438.82 L 147.918 438.82 L 147.918 438.82 Q 150.543 438.208 153.401 436.866 L 153.401 436.866 L 153.401 443.75 L 153.401 443.75 Q 151.068 444.916 148.414 445.485 L 148.414 445.485 L 148.414 445.485 Q 145.76 446.054 141.939 446.054 Z  M 185.222 435.787 L 185.222 435.787 L 185.222 435.787 Q 185.222 440.804 181.737 443.429 L 181.737 443.429 L 181.737 443.429 Q 178.251 446.054 171.31 446.054 L 171.31 446.054 L 171.31 446.054 Q 167.751 446.054 165.243 445.573 L 165.243 445.573 L 165.243 445.573 Q 162.735 445.091 160.547 444.158 L 160.547 444.158 L 160.547 436.808 L 160.547 436.808 Q 163.026 437.975 166.133 438.762 L 166.133 438.762 L 166.133 438.762 Q 169.239 439.55 171.601 439.55 L 171.601 439.55 L 171.601 439.55 Q 176.443 439.55 176.443 436.75 L 176.443 436.75 L 176.443 436.75 Q 176.443 435.7 175.801 435.043 L 175.801 435.043 L 175.801 435.043 Q 175.16 434.387 173.585 433.556 L 173.585 433.556 L 173.585 433.556 Q 172.01 432.725 169.385 431.616 L 169.385 431.616 L 169.385 431.616 Q 165.622 430.041 163.858 428.7 L 163.858 428.7 L 163.858 428.7 Q 162.093 427.358 161.291 425.623 L 161.291 425.623 L 161.291 425.623 Q 160.489 423.887 160.489 421.35 L 160.489 421.35 L 160.489 421.35 Q 160.489 417.004 163.858 414.627 L 163.858 414.627 L 163.858 414.627 Q 167.226 412.25 173.41 412.25 L 173.41 412.25 L 173.41 412.25 Q 179.301 412.25 184.872 414.816 L 184.872 414.816 L 182.189 421.233 L 182.189 421.233 Q 179.739 420.183 177.61 419.512 L 177.61 419.512 L 177.61 419.512 Q 175.48 418.841 173.264 418.841 L 173.264 418.841 L 173.264 418.841 Q 169.326 418.841 169.326 420.97 L 169.326 420.97 L 169.326 420.97 Q 169.326 422.166 170.595 423.041 L 170.595 423.041 L 170.595 423.041 Q 171.864 423.916 176.151 425.637 L 176.151 425.637 L 176.151 425.637 Q 179.972 427.183 181.751 428.525 L 181.751 428.525 L 181.751 428.525 Q 183.53 429.866 184.376 431.616 L 184.376 431.616 L 184.376 431.616 Q 185.222 433.366 185.222 435.787 Z  M 222.264 424.208 L 222.264 445.47 L 213.368 445.47 L 213.368 426.425 L 213.368 426.425 Q 213.368 422.895 212.114 421.131 L 212.114 421.131 L 212.114 421.131 Q 210.86 419.366 208.118 419.366 L 208.118 419.366 L 208.118 419.366 Q 204.385 419.366 202.722 421.86 L 202.722 421.86 L 202.722 421.86 Q 201.06 424.354 201.06 430.129 L 201.06 430.129 L 201.06 445.47 L 192.164 445.47 L 192.164 412.862 L 198.96 412.862 L 200.155 417.033 L 200.651 417.033 L 200.651 417.033 Q 202.139 414.67 204.749 413.46 L 204.749 413.46 L 204.749 413.46 Q 207.36 412.25 210.685 412.25 L 210.685 412.25 L 210.685 412.25 Q 216.372 412.25 219.318 415.327 L 219.318 415.327 L 219.318 415.327 Q 222.264 418.404 222.264 424.208 L 222.264 424.208 L 222.264 424.208 Z  M 244.926 418.579 L 244.926 418.579 L 244.926 418.579 Q 242.097 418.579 240.493 420.373 L 240.493 420.373 L 240.493 420.373 Q 238.889 422.166 238.655 425.462 L 238.655 425.462 L 251.139 425.462 L 251.139 425.462 Q 251.08 422.166 249.418 420.373 L 249.418 420.373 L 249.418 420.373 Q 247.755 418.579 244.926 418.579 Z  M 246.18 446.054 L 246.18 446.054 L 246.18 446.054 Q 238.305 446.054 233.872 441.708 L 233.872 441.708 L 233.872 441.708 Q 229.439 437.362 229.439 429.4 L 229.439 429.4 L 229.439 429.4 Q 229.439 421.204 233.537 416.727 L 233.537 416.727 L 233.537 416.727 Q 237.635 412.25 244.868 412.25 L 244.868 412.25 L 244.868 412.25 Q 251.78 412.25 255.63 416.187 L 255.63 416.187 L 255.63 416.187 Q 259.48 420.125 259.48 427.066 L 259.48 427.066 L 259.48 431.383 L 238.451 431.383 L 238.451 431.383 Q 238.597 435.175 240.697 437.304 L 240.697 437.304 L 240.697 437.304 Q 242.797 439.433 246.589 439.433 L 246.589 439.433 L 246.589 439.433 Q 249.535 439.433 252.16 438.82 L 252.16 438.82 L 252.16 438.82 Q 254.785 438.208 257.643 436.866 L 257.643 436.866 L 257.643 443.75 L 257.643 443.75 Q 255.31 444.916 252.655 445.485 L 252.655 445.485 L 252.655 445.485 Q 250.001 446.054 246.18 446.054 Z  M 280.451 438.966 L 280.451 438.966 L 280.451 438.966 Q 282.785 438.966 286.051 437.945 L 286.051 437.945 L 286.051 444.566 L 286.051 444.566 Q 282.726 446.054 277.885 446.054 L 277.885 446.054 L 277.885 446.054 Q 272.547 446.054 270.112 443.356 L 270.112 443.356 L 270.112 443.356 Q 267.676 440.658 267.676 435.262 L 267.676 435.262 L 267.676 419.541 L 263.418 419.541 L 263.418 415.779 L 268.318 412.804 L 270.885 405.92 L 276.572 405.92 L 276.572 412.862 L 285.701 412.862 L 285.701 419.541 L 276.572 419.541 L 276.572 435.262 L 276.572 435.262 Q 276.572 437.158 277.637 438.062 L 277.637 438.062 L 277.637 438.062 Q 278.701 438.966 280.451 438.966 Z  M 315.335 438.675 L 315.335 445.47 L 289.58 445.47 L 289.58 440.22 L 304.689 419.658 L 290.485 419.658 L 290.485 412.862 L 314.81 412.862 L 314.81 418.637 L 300.11 438.675 L 315.335 438.675 L 315.335 438.675 Z  M 320.526 441.3 L 320.526 441.3 L 320.526 441.3 Q 320.526 438.85 321.839 437.595 L 321.839 437.595 L 321.839 437.595 Q 323.151 436.341 325.66 436.341 L 325.66 436.341 L 325.66 436.341 Q 328.08 436.341 329.408 437.625 L 329.408 437.625 L 329.408 437.625 Q 330.735 438.908 330.735 441.3 L 330.735 441.3 L 330.735 441.3 Q 330.735 443.604 329.393 444.931 L 329.393 444.931 L 329.393 444.931 Q 328.051 446.258 325.66 446.258 L 325.66 446.258 L 325.66 446.258 Q 323.21 446.258 321.868 444.96 L 321.868 444.96 L 321.868 444.96 Q 320.526 443.662 320.526 441.3 Z  M 352.055 446.054 L 352.055 446.054 L 352.055 446.054 Q 336.83 446.054 336.83 429.341 L 336.83 429.341 L 336.83 429.341 Q 336.83 421.029 340.972 416.639 L 340.972 416.639 L 340.972 416.639 Q 345.114 412.25 352.843 412.25 L 352.843 412.25 L 352.843 412.25 Q 358.501 412.25 362.993 414.466 L 362.993 414.466 L 360.368 421.35 L 360.368 421.35 Q 358.268 420.504 356.46 419.964 L 356.46 419.964 L 356.46 419.964 Q 354.651 419.425 352.843 419.425 L 352.843 419.425 L 352.843 419.425 Q 345.901 419.425 345.901 429.283 L 345.901 429.283 L 345.901 429.283 Q 345.901 438.85 352.843 438.85 L 352.843 438.85 L 352.843 438.85 Q 355.41 438.85 357.597 438.164 L 357.597 438.164 L 357.597 438.164 Q 359.785 437.479 361.972 436.02 L 361.972 436.02 L 361.972 443.633 L 361.972 443.633 Q 359.814 445.004 357.612 445.529 L 357.612 445.529 L 357.612 445.529 Q 355.41 446.054 352.055 446.054 Z  M 376.614 429.108 L 376.614 429.108 L 376.614 429.108 Q 376.614 433.95 378.203 436.429 L 378.203 436.429 L 378.203 436.429 Q 379.793 438.908 383.38 438.908 L 383.38 438.908 L 383.38 438.908 Q 386.939 438.908 388.499 436.443 L 388.499 436.443 L 388.499 436.443 Q 390.06 433.979 390.06 429.108 L 390.06 429.108 L 390.06 429.108 Q 390.06 424.266 388.485 421.845 L 388.485 421.845 L 388.485 421.845 Q 386.91 419.425 383.322 419.425 L 383.322 419.425 L 383.322 419.425 Q 379.764 419.425 378.189 421.831 L 378.189 421.831 L 378.189 421.831 Q 376.614 424.237 376.614 429.108 Z  M 399.16 429.108 L 399.16 429.108 L 399.16 429.108 Q 399.16 437.07 394.96 441.562 L 394.96 441.562 L 394.96 441.562 Q 390.76 446.054 383.264 446.054 L 383.264 446.054 L 383.264 446.054 Q 378.568 446.054 374.98 443.998 L 374.98 443.998 L 374.98 443.998 Q 371.393 441.941 369.468 438.091 L 369.468 438.091 L 369.468 438.091 Q 367.543 434.241 367.543 429.108 L 367.543 429.108 L 367.543 429.108 Q 367.543 421.116 371.714 416.683 L 371.714 416.683 L 371.714 416.683 Q 375.885 412.25 383.439 412.25 L 383.439 412.25 L 383.439 412.25 Q 388.135 412.25 391.722 414.291 L 391.722 414.291 L 391.722 414.291 Q 395.31 416.333 397.235 420.154 L 397.235 420.154 L 397.235 420.154 Q 399.16 423.975 399.16 429.108 Z  M 435.705 429.108 L 435.705 445.47 L 426.81 445.47 L 426.81 426.425 L 426.81 426.425 Q 426.81 422.895 425.628 421.131 L 425.628 421.131 L 425.628 421.131 Q 424.447 419.366 421.91 419.366 L 421.91 419.366 L 421.91 419.366 Q 418.497 419.366 416.951 421.875 L 416.951 421.875 L 416.951 421.875 Q 415.405 424.383 415.405 430.129 L 415.405 430.129 L 415.405 445.47 L 406.51 445.47 L 406.51 412.862 L 413.305 412.862 L 414.501 417.033 L 414.997 417.033 L 414.997 417.033 Q 416.31 414.787 418.789 413.518 L 418.789 413.518 L 418.789 413.518 Q 421.268 412.25 424.476 412.25 L 424.476 412.25 L 424.476 412.25 Q 431.797 412.25 434.393 417.033 L 434.393 417.033 L 435.18 417.033 L 435.18 417.033 Q 436.493 414.758 439.045 413.504 L 439.045 413.504 L 439.045 413.504 Q 441.597 412.25 444.805 412.25 L 444.805 412.25 L 444.805 412.25 Q 450.347 412.25 453.191 415.093 L 453.191 415.093 L 453.191 415.093 Q 456.035 417.937 456.035 424.208 L 456.035 424.208 L 456.035 445.47 L 447.11 445.47 L 447.11 426.425 L 447.11 426.425 Q 447.11 422.895 445.928 421.131 L 445.928 421.131 L 445.928 421.131 Q 444.747 419.366 442.21 419.366 L 442.21 419.366 L 442.21 419.366 Q 438.943 419.366 437.324 421.7 L 437.324 421.7 L 437.324 421.7 Q 435.705 424.033 435.705 429.108 L 435.705 429.108 L 435.705 429.108 Z " fill-rule="evenodd" fill="rgb(255,255,255)"/><g id="Group"><g id="Group"><path d=" M 266.845 132.212 C 274.402 119.648 278.75 104.938 278.75 89.221 C 278.75 71.019 272.918 54.168 263.024 40.436 L 256.873 40.436 L 182.646 40.436 C 173.452 40.436 162.256 46.9 157.659 54.862 L 120.546 119.145 L 118.538 122.621 C 131.439 152.147 160.911 172.802 195.169 172.802 C 195.293 172.802 195.417 172.802 195.541 172.801 L 200.026 165.033 L 212.971 142.61 C 216.285 136.871 224.355 132.212 230.982 132.212 L 256.873 132.212 L 266.845 132.212 Z " fill="rgb(255,152,0)"/><path d=" M 205.489 155.571 C 190.96 130.868 164.098 114.273 133.391 114.273 C 129.869 114.273 126.396 114.491 122.988 114.915 L 120.546 119.145 L 83.432 183.427 C 78.835 191.389 78.835 204.318 83.432 212.279 L 120.546 276.562 L 122.988 280.792 C 126.396 281.216 129.869 281.434 133.391 281.434 C 164.098 281.434 190.96 264.839 205.489 240.136 L 200.026 230.674 L 187.08 208.252 C 183.767 202.513 183.767 193.194 187.08 187.455 L 200.026 165.033 L 205.489 155.571 Z " fill="rgb(244,67,54)"/><path d=" M 193.894 220.053 C 159.548 220.568 130.196 241.842 117.839 271.874 L 120.546 276.562 L 157.659 340.845 C 162.256 348.807 173.452 355.271 182.646 355.271 L 256.873 355.271 L 260.868 355.271 C 272.066 341.05 278.75 323.112 278.75 303.624 C 278.75 289.086 275.029 275.409 268.49 263.495 L 256.873 263.495 L 230.982 263.495 C 224.355 263.495 216.285 258.836 212.971 253.096 L 200.026 230.674 L 193.894 220.053 Z " fill="rgb(156,39,176)"/><path d=" M 321.737 216.79 C 355.865 220.043 384.034 243.855 393.707 275.686 L 393.201 276.562 L 356.087 340.845 C 351.49 348.807 340.294 355.271 331.101 355.271 L 256.873 355.271 L 251.053 355.271 C 238.04 340.533 230.14 321.177 230.14 299.99 C 230.14 286.909 233.152 274.525 238.519 263.495 L 256.873 263.495 L 282.764 263.495 C 289.391 263.495 297.462 258.836 300.775 253.096 L 313.721 230.674 L 321.737 216.79 Z " fill="rgb(76,175,80)"/><path d=" M 308.33 155.695 C 322.842 130.923 349.742 114.273 380.5 114.273 C 383.969 114.273 387.389 114.484 390.748 114.896 L 393.201 119.145 L 430.315 183.427 C 434.911 191.389 434.911 204.318 430.315 212.279 L 393.201 276.562 L 390.748 280.811 C 387.389 281.223 383.969 281.434 380.5 281.434 C 349.742 281.434 322.842 264.783 308.33 240.011 L 313.721 230.674 L 326.666 208.252 C 329.98 202.513 329.98 193.194 326.666 187.455 L 313.721 165.033 L 308.33 155.695 Z " fill="rgb(205,220,57)"/><path d=" M 263.024 40.436 L 331.101 40.436 C 340.294 40.436 351.49 46.9 356.087 54.862 L 389.726 113.127 C 380.2 145.054 352.089 169 317.968 172.39 L 313.721 165.033 L 300.775 142.61 C 297.462 136.871 289.391 132.212 282.764 132.212 L 266.845 132.212 C 274.402 119.648 278.75 104.938 278.75 89.221 C 278.75 71.019 272.918 54.168 263.024 40.436 Z " fill="rgb(255,235,59)"/></g></g><g id="Group"><rect x="0.751" y="486.4" width="34.166" height="25.6" transform="matrix(1,0,0,1,0,0)" fill="rgb(244,67,54)"/><rect x="34.882" y="486.4" width="34.166" height="25.6" transform="matrix(1,0,0,1,0,0)" fill="rgb(233,30,99)"/><rect x="69.013" y="486.4" width="34.166" height="25.6" transform="matrix(1,0,0,1,0,0)" fill="rgb(156,39,176)"/><rect x="103.144" y="486.4" width="34.166" height="25.6" transform="matrix(1,0,0,1,0,0)" fill="rgb(63,81,181)"/><rect x="137.275" y="486.4" width="34.166" height="25.6" transform="matrix(1,0,0,1,0,0)" fill="rgb(33,150,243)"/><rect x="171.406" y="486.4" width="34.166" height="25.6" transform="matrix(1,0,0,1,0,0)" fill="rgb(3,169,244)"/><rect x="205.537" y="486.4" width="34.166" height="25.6" transform="matrix(1,0,0,1,0,0)" fill="rgb(0,188,212)"/><rect x="239.668" y="486.4" width="34.166" height="25.6" transform="matrix(1,0,0,1,0,0)" fill="rgb(0,150,136)"/><rect x="273.799" y="486.4" width="34.166" height="25.6" transform="matrix(1,0,0,1,0,0)" fill="rgb(76,175,80)"/><rect x="307.93" y="486.4" width="34.166" height="25.6" transform="matrix(1,0,0,1,0,0)" fill="rgb(139,195,74)"/><rect x="342.061" y="486.4" width="34.166" height="25.6" transform="matrix(1,0,0,1,0,0)" fill="rgb(205,220,57)"/><rect x="376.192" y="486.4" width="34.166" height="25.6" transform="matrix(1,0,0,1,0,0)" fill="rgb(255,235,59)"/><rect x="410.323" y="486.4" width="34.166" height="25.6" transform="matrix(1,0,0,1,0,0)" fill="rgb(255,193,7)"/><rect x="444.454" y="486.4" width="34.166" height="25.6" transform="matrix(1,0,0,1,0,0)" fill="rgb(255,152,0)"/><rect x="478.585" y="486.4" width="34.166" height="25.6" transform="matrix(1,0,0,1,0,0)" fill="rgb(255,87,34)"/></g><g id="Group" style="opacity:0.71;"><path d=" M 221.424 295.917 C 218.156 285.601 208.504 278.111 197.111 278.101 C 183.026 278.088 171.58 289.513 171.567 303.598 C 171.554 317.684 182.979 329.13 197.065 329.143 C 208.457 329.153 218.123 321.681 221.409 311.371 L 265.917 311.412 C 270.182 311.416 273.648 307.957 273.652 303.692 C 273.655 299.427 270.196 295.962 265.931 295.958 L 221.424 295.917 Z " fill="rgb(255,255,255)"/><path d=" M 321.718 278.332 C 311.209 275.751 299.79 280.093 293.85 289.815 C 286.506 301.834 290.302 317.555 302.322 324.899 C 314.341 332.242 330.062 328.446 337.406 316.427 C 343.346 306.705 341.998 294.563 334.906 286.389 L 358.111 248.409 C 360.335 244.77 359.185 240.01 355.546 237.787 C 351.907 235.563 347.147 236.713 344.924 240.352 L 321.718 278.332 Z " fill="rgb(255,255,255)"/><path d=" M 360.343 179.562 C 352.925 187.44 351.085 199.518 356.624 209.473 C 363.474 221.781 379.027 226.213 391.335 219.364 C 403.643 212.514 408.075 196.961 401.226 184.653 C 395.686 174.698 384.453 169.896 373.847 172.047 L 352.205 133.155 C 350.131 129.429 345.422 128.087 341.695 130.161 C 337.969 132.234 336.627 136.944 338.701 140.67 L 360.343 179.562 Z " fill="rgb(255,255,255)"/><path d=" M 291.922 98.706 C 295.175 109.027 304.817 116.53 316.21 116.556 C 321.752 116.568 326.888 114.81 331.081 111.814 C 337.545 107.195 341.77 99.636 341.789 91.093 C 341.822 77.008 330.412 65.546 316.327 65.514 C 304.934 65.487 295.258 72.946 291.957 83.252 L 247.45 83.15 C 243.185 83.14 239.715 86.594 239.705 90.859 C 239.695 95.124 243.149 98.594 247.414 98.604 L 291.922 98.706 Z " fill="rgb(255,255,255)"/><path d=" M 190.312 114.95 C 195.596 116.111 201.066 115.537 205.927 113.44 C 210.788 111.342 215.041 107.721 217.891 102.79 C 224.939 90.594 220.76 74.971 208.565 67.923 C 196.37 60.875 180.746 65.054 173.698 77.249 C 167.998 87.113 169.642 99.219 176.931 107.217 L 154.661 145.752 C 152.527 149.445 153.792 154.175 157.484 156.309 C 161.177 158.443 165.907 157.178 168.041 153.485 L 190.312 114.95 Z " fill="rgb(255,255,255)"/><path d=" M 151.501 213.178 C 158.714 205.112 160.243 192.991 154.449 183.182 C 147.286 171.054 131.623 167.023 119.495 174.187 C 107.368 181.351 103.337 197.013 110.501 209.141 C 116.295 218.95 127.649 223.462 138.195 221.038 L 160.831 259.36 C 163 263.032 167.742 264.252 171.414 262.083 C 175.086 259.914 176.306 255.172 174.137 251.5 L 151.501 213.178 Z " fill="rgb(255,255,255)"/></g></g></g></svg>