<?xml version="1.0" standalone="no"?><!-- Generator: Gravit.io --><svg xmlns="http://www.w3.org/2000/svg" xmlns:xlink="http://www.w3.org/1999/xlink" style="isolation:isolate" viewBox="0 0 144.567 144.567" width="144.567" height="144.567"><defs><clipPath id="_clipPath_BIOhpIdWRPzVdW9F4GIR78Mchq9nLUtR"><rect width="144.567" height="144.567"/></clipPath></defs><g clip-path="url(#_clipPath_BIOhpIdWRPzVdW9F4GIR78Mchq9nLUtR)"><circle vector-effect="non-scaling-stroke" cx="72.28346456692915" cy="72.28346456692913" r="63.77952755905514" fill="rgb(0,0,0)"/><circle vector-effect="non-scaling-stroke" cx="72.28346456692914" cy="72.28346456692915" r="51.07486983980195" fill="rgb(0,0,0)"/><g><path d=" M 30.948 79.501 L 39.279 78.001 L 22.24 62.65 L 11.627 82.981 L 18.755 81.697 C 22.408 102.081 37.436 118.542 57.025 124.265 L 66.417 113.644 C 48.459 111.129 34.126 97.239 30.948 79.501 Z " fill-rule="evenodd" fill="rgb(255,255,255)"/><path d=" M 64.839 30.721 L 66.34 39.053 L 81.69 22.014 L 61.36 11.4 L 62.643 18.529 C 42.427 22.151 26.07 36.963 20.219 56.316 L 20.219 56.316 L 30.73 65.956 C 33.332 48.107 47.179 33.886 64.839 30.721 Z " fill-rule="evenodd" fill="rgb(255,255,255)"/><path d=" M 79.649 113.407 L 78.227 105.514 L 62.877 122.553 L 83.207 133.167 L 81.844 125.599 C 102.215 121.98 118.68 107.004 124.449 87.46 L 113.794 78.446 C 111.082 96.186 97.252 110.287 79.649 113.407 Z " fill-rule="evenodd" fill="rgb(255,255,255)"/><path d=" M 113.619 64.613 L 105.288 66.113 L 122.327 81.463 L 132.94 61.133 L 125.812 62.417 C 122.193 42.221 107.408 25.876 88.083 20.01 L 88.083 20.01 L 88.083 20.01 L 78.308 30.492 C 96.192 33.066 110.45 46.927 113.619 64.613 Z " fill-rule="evenodd" fill="rgb(255,255,255)"/><path d=" M 76.092 72.171 C 76.155 70.102 74.526 68.371 72.458 68.308 C 70.389 68.245 68.658 69.873 68.595 71.942 C 68.531 74.011 70.16 75.742 72.229 75.805 C 74.297 75.868 76.028 74.24 76.092 72.171 L 76.092 72.171 L 76.092 72.171 L 76.092 72.171 L 76.092 72.171 L 76.092 72.171 L 76.092 72.171 Z  M 78.268 66.565 C 78.268 65.626 77.506 64.864 76.568 64.864 C 75.629 64.864 74.867 65.626 74.867 66.565 C 74.867 67.503 75.629 68.265 76.568 68.265 C 77.506 68.265 78.268 67.503 78.268 66.565 L 78.268 66.565 L 78.268 66.565 L 78.268 66.565 L 78.268 66.565 L 78.268 66.565 Z  M 80.938 72.996 C 80.938 72.057 80.176 71.295 79.238 71.295 C 78.299 71.295 77.538 72.057 77.538 72.996 C 77.538 73.934 78.299 74.696 79.238 74.696 C 80.176 74.696 80.938 73.934 80.938 72.996 L 80.938 72.996 L 80.938 72.996 L 80.938 72.996 L 80.938 72.996 Z  M 76.524 78.516 C 76.524 77.578 75.762 76.816 74.823 76.816 C 73.885 76.816 73.123 77.578 73.123 78.516 C 73.123 79.454 73.885 80.216 74.823 80.216 C 75.762 80.216 76.524 79.454 76.524 78.516 L 76.524 78.516 L 76.524 78.516 L 76.524 78.516 Z  M 69.445 77.257 C 69.445 76.319 68.684 75.557 67.745 75.557 C 66.807 75.557 66.045 76.319 66.045 77.257 C 66.045 78.195 66.807 78.957 67.745 78.957 C 68.684 78.957 69.445 78.195 69.445 77.257 L 69.445 77.257 L 69.445 77.257 Z  M 67.235 71.12 C 67.235 70.182 66.473 69.42 65.535 69.42 C 64.597 69.42 63.835 70.182 63.835 71.12 C 63.835 72.058 64.597 72.82 65.535 72.82 C 66.473 72.82 67.235 72.058 67.235 71.12 L 67.235 71.12 Z  M 52.315 99.014 L 67.78 84.04 C 69.644 82.235 72.224 82.586 73.538 84.823 L 84.438 103.386 C 85.752 105.623 86.306 105.397 85.675 102.88 L 80.439 82 C 79.808 79.483 81.402 77.424 83.997 77.405 L 105.522 77.247 C 108.117 77.228 108.198 76.634 105.703 75.923 L 85.002 70.017 C 82.507 69.305 81.521 66.895 82.802 64.639 L 93.428 45.918 C 94.708 43.661 94.235 43.294 92.371 45.099 L 76.906 60.074 C 75.042 61.879 72.462 61.528 71.148 59.29 L 60.248 40.727 C 58.934 38.49 58.38 38.717 59.011 41.233 L 64.247 62.113 C 64.878 64.63 63.284 66.689 60.689 66.708 L 39.164 66.866 C 36.569 66.886 36.488 67.479 38.983 68.191 L 59.684 74.096 C 62.179 74.808 63.165 77.218 61.884 79.475 L 51.259 98.196 C 49.978 100.452 50.451 100.819 52.315 99.014 L 52.315 99.014 L 52.315 99.014 L 52.315 99.014 L 52.315 99.014 L 52.315 99.014 L 52.315 99.014 Z  M 71.486 65.572 C 71.486 64.634 70.724 63.872 69.785 63.872 C 68.847 63.872 68.085 64.634 68.085 65.572 C 68.085 66.511 68.847 67.272 69.785 67.272 C 70.724 67.272 71.486 66.511 71.486 65.572 Z " fill-rule="evenodd" fill="rgb(255,255,255)"/></g></g></svg>