<?xml version="1.0" standalone="no"?><!-- Generator: Gravit.io --><svg xmlns="http://www.w3.org/2000/svg" xmlns:xlink="http://www.w3.org/1999/xlink" style="isolation:isolate" viewBox="0 0 144.567 144.567" width="144.567" height="144.567"><defs><clipPath id="_clipPath_fMZTUqVkWYBb2XMW95Puno25HcWf3Hnp"><rect width="144.567" height="144.567"/></clipPath></defs><g clip-path="url(#_clipPath_fMZTUqVkWYBb2XMW95Puno25HcWf3Hnp)"><g><circle vector-effect="non-scaling-stroke" cx="72.28346456692914" cy="72.28346456692914" r="70.86614173228344" fill="rgb(0,0,0)"/><circle vector-effect="non-scaling-stroke" cx="72.28346456692913" cy="72.28346456692913" r="56.74985537755771" fill="rgb(0,0,0)"/><g><path d=" M 26.355 80.303 L 35.612 78.636 L 16.68 61.58 L 4.887 84.169 L 12.808 82.743 C 16.866 105.392 33.564 123.681 55.33 130.041 L 65.765 118.24 C 45.811 115.445 29.887 100.012 26.355 80.303 Z " fill-rule="evenodd" fill="rgb(255,255,255)"/><path d=" M 64.012 26.103 L 65.679 35.36 L 82.735 16.428 L 60.146 4.635 L 61.572 12.556 C 39.109 16.581 20.935 33.038 14.434 54.542 L 14.434 54.542 L 26.113 65.253 C 29.004 45.421 44.389 29.62 64.012 26.103 Z " fill-rule="evenodd" fill="rgb(255,255,255)"/><path d=" M 80.467 117.976 L 78.888 109.207 L 61.832 128.139 L 84.421 139.931 L 82.907 131.523 C 105.541 127.502 123.835 110.862 130.245 89.146 L 118.407 79.131 C 115.393 98.841 100.026 114.51 80.467 117.976 Z " fill-rule="evenodd" fill="rgb(255,255,255)"/><path d=" M 118.212 63.76 L 108.955 65.427 L 127.887 82.483 L 139.68 59.894 L 131.759 61.321 C 127.738 38.88 111.31 20.72 89.839 14.202 L 89.839 14.202 L 89.839 14.202 L 78.978 25.849 C 98.849 28.709 114.691 44.109 118.212 63.76 Z " fill-rule="evenodd" fill="rgb(255,255,255)"/><path d=" M 76.515 72.159 C 76.585 69.86 74.776 67.937 72.477 67.867 C 70.178 67.796 68.255 69.605 68.185 71.904 C 68.115 74.203 69.924 76.126 72.222 76.196 C 74.521 76.267 76.444 74.457 76.515 72.159 L 76.515 72.159 L 76.515 72.159 L 76.515 72.159 L 76.515 72.159 L 76.515 72.159 L 76.515 72.159 Z  M 78.933 65.929 C 78.933 64.886 78.086 64.04 77.044 64.04 C 76.001 64.04 75.155 64.886 75.155 65.929 C 75.155 66.972 76.001 67.818 77.044 67.818 C 78.086 67.818 78.933 66.972 78.933 65.929 L 78.933 65.929 L 78.933 65.929 L 78.933 65.929 L 78.933 65.929 L 78.933 65.929 Z  M 81.9 73.075 C 81.9 72.032 81.053 71.186 80.011 71.186 C 78.968 71.186 78.121 72.032 78.121 73.075 C 78.121 74.117 78.968 74.964 80.011 74.964 C 81.053 74.964 81.9 74.117 81.9 73.075 L 81.9 73.075 L 81.9 73.075 L 81.9 73.075 L 81.9 73.075 Z  M 76.995 79.209 C 76.995 78.166 76.148 77.32 75.106 77.32 C 74.063 77.32 73.217 78.166 73.217 79.209 C 73.217 80.251 74.063 81.098 75.106 81.098 C 76.148 81.098 76.995 80.251 76.995 79.209 L 76.995 79.209 L 76.995 79.209 L 76.995 79.209 Z  M 69.13 77.81 C 69.13 76.767 68.284 75.921 67.241 75.921 C 66.199 75.921 65.352 76.767 65.352 77.81 C 65.352 78.852 66.199 79.699 67.241 79.699 C 68.284 79.699 69.13 78.852 69.13 77.81 L 69.13 77.81 L 69.13 77.81 Z  M 66.674 70.991 C 66.674 69.948 65.828 69.102 64.785 69.102 C 63.743 69.102 62.896 69.948 62.896 70.991 C 62.896 72.033 63.743 72.88 64.785 72.88 C 65.828 72.88 66.674 72.033 66.674 70.991 L 66.674 70.991 Z  M 50.097 101.984 L 67.279 85.346 C 69.351 83.34 72.217 83.73 73.677 86.217 L 85.788 106.842 C 87.248 109.328 87.864 109.076 87.163 106.279 L 81.345 83.08 C 80.644 80.283 82.415 77.996 85.298 77.974 L 109.216 77.798 C 112.099 77.777 112.188 77.118 109.416 76.327 L 86.415 69.765 C 83.643 68.974 82.548 66.297 83.971 63.789 L 95.777 42.988 C 97.2 40.481 96.674 40.073 94.603 42.079 L 77.42 58.717 C 75.349 60.723 72.482 60.332 71.022 57.846 L 58.911 37.221 C 57.451 34.735 56.835 34.987 57.537 37.783 L 63.354 60.983 C 64.056 63.78 62.284 66.067 59.401 66.089 L 35.484 66.265 C 32.601 66.286 32.511 66.945 35.283 67.736 L 58.284 74.298 C 61.056 75.089 62.152 77.766 60.729 80.274 L 48.922 101.075 C 47.499 103.582 48.025 103.99 50.097 101.984 L 50.097 101.984 L 50.097 101.984 L 50.097 101.984 L 50.097 101.984 L 50.097 101.984 L 50.097 101.984 Z  M 71.397 64.827 C 71.397 63.784 70.55 62.938 69.508 62.938 C 68.465 62.938 67.619 63.784 67.619 64.827 C 67.619 65.869 68.465 66.716 69.508 66.716 C 70.55 66.716 71.397 65.869 71.397 64.827 Z " fill-rule="evenodd" fill="rgb(255,255,255)"/></g></g></g></svg>