<?xml version="1.0" standalone="no"?><!-- Generator: Gravit.io --><svg xmlns="http://www.w3.org/2000/svg" xmlns:xlink="http://www.w3.org/1999/xlink" style="isolation:isolate" viewBox="0 0 560 15" width="560" height="15"><defs><clipPath id="_clipPath_ifVt8RbcMlcLxOkDmmmxKEwr1mPHAUF1"><rect width="560" height="15"/></clipPath></defs><g clip-path="url(#_clipPath_ifVt8RbcMlcLxOkDmmmxKEwr1mPHAUF1)"><g id="Group"><rect x="0" y="0" width="37.37" height="15" transform="matrix(1,0,0,1,0,0)" fill="rgb(244,67,54)"/><rect x="37.331" y="0" width="37.37" height="15" transform="matrix(1,0,0,1,0,0)" fill="rgb(233,30,99)"/><rect x="74.661" y="0" width="37.37" height="15" transform="matrix(1,0,0,1,0,0)" fill="rgb(156,39,176)"/><rect x="111.992" y="0" width="37.37" height="15" transform="matrix(1,0,0,1,0,0)" fill="rgb(63,81,181)"/><rect x="149.323" y="0" width="37.37" height="15" transform="matrix(1,0,0,1,0,0)" fill="rgb(33,150,243)"/><rect x="186.654" y="0" width="37.37" height="15" transform="matrix(1,0,0,1,0,0)" fill="rgb(3,169,244)"/><rect x="223.984" y="0" width="37.37" height="15" transform="matrix(1,0,0,1,0,0)" fill="rgb(0,188,212)"/><rect x="261.315" y="0" width="37.37" height="15" transform="matrix(1,0,0,1,0,0)" fill="rgb(0,150,136)"/><rect x="298.646" y="0" width="37.37" height="15" transform="matrix(1,0,0,1,0,0)" fill="rgb(76,175,80)"/><rect x="335.977" y="0" width="37.37" height="15" transform="matrix(1,0,0,1,0,0)" fill="rgb(139,195,74)"/><rect x="373.307" y="0" width="37.37" height="15" transform="matrix(1,0,0,1,0,0)" fill="rgb(205,220,57)"/><rect x="410.638" y="0" width="37.37" height="15" transform="matrix(1,0,0,1,0,0)" fill="rgb(255,235,59)"/><rect x="447.969" y="0" width="37.37" height="15" transform="matrix(1,0,0,1,0,0)" fill="rgb(255,193,7)"/><rect x="485.3" y="0" width="37.37" height="15" transform="matrix(1,0,0,1,0,0)" fill="rgb(255,152,0)"/><rect x="522.63" y="0" width="37.37" height="15" transform="matrix(1,0,0,1,0,0)" fill="rgb(255,87,34)"/></g></g></svg>