<?xml version="1.0" standalone="no"?><!-- Generator: Gravit.io --><svg xmlns="http://www.w3.org/2000/svg" xmlns:xlink="http://www.w3.org/1999/xlink" style="isolation:isolate" viewBox="0 0 140 140" width="140" height="140"><defs><clipPath id="_clipPath_T7dPTCZ6reiqCDYoqtCpB8uCbrkUBl2s"><rect width="140" height="140"/></clipPath></defs><g clip-path="url(#_clipPath_T7dPTCZ6reiqCDYoqtCpB8uCbrkUBl2s)"><rect width="140" height="140" style="fill:rgb(3,169,244)"/><g style="isolation:isolate" id="Layer 0"/><rect x="0" y="0" width="140" height="133" transform="matrix(1,0,0,1,0,0)" fill="rgb(31,59,81)"/><g id="Group" style="opacity:0.16;"><rect x="0" y="0" width="9.342" height="132.814" transform="matrix(1,0,0,1,0,0)" fill="rgb(244,67,54)"/><rect x="9.333" y="0" width="9.342" height="132.814" transform="matrix(1,0,0,1,0,0)" fill="rgb(233,30,99)"/><rect x="18.665" y="0" width="9.342" height="132.814" transform="matrix(1,0,0,1,0,0)" fill="rgb(156,39,176)"/><rect x="27.998" y="0" width="9.342" height="132.814" transform="matrix(1,0,0,1,0,0)" fill="rgb(63,81,181)"/><rect x="37.331" y="0" width="9.342" height="132.814" transform="matrix(1,0,0,1,0,0)" fill="rgb(33,150,243)"/><rect x="46.663" y="0" width="9.342" height="132.814" transform="matrix(1,0,0,1,0,0)" fill="rgb(3,169,244)"/><rect x="55.996" y="0" width="9.342" height="132.814" transform="matrix(1,0,0,1,0,0)" fill="rgb(0,188,212)"/><rect x="65.329" y="0" width="9.342" height="132.814" transform="matrix(1,0,0,1,0,0)" fill="rgb(0,150,136)"/><rect x="74.661" y="0" width="9.342" height="132.814" transform="matrix(1,0,0,1,0,0)" fill="rgb(76,175,80)"/><rect x="83.994" y="0" width="9.342" height="132.814" transform="matrix(1,0,0,1,0,0)" fill="rgb(139,195,74)"/><rect x="93.327" y="0" width="9.342" height="132.814" transform="matrix(1,0,0,1,0,0)" fill="rgb(205,220,57)"/><rect x="102.66" y="0" width="9.342" height="132.814" transform="matrix(1,0,0,1,0,0)" fill="rgb(255,235,59)"/><rect x="111.992" y="0" width="9.342" height="132.814" transform="matrix(1,0,0,1,0,0)" fill="rgb(255,193,7)"/><rect x="121.325" y="0" width="9.342" height="132.814" transform="matrix(1,0,0,1,0,0)" fill="rgb(255,152,0)"/><rect x="130.658" y="0" width="9.342" height="132.814" transform="matrix(1,0,0,1,0,0)" fill="rgb(255,87,34)"/></g><g id="Group"><rect x="0" y="133" width="9.342" height="7" transform="matrix(1,0,0,1,0,0)" fill="rgb(244,67,54)"/><rect x="9.333" y="133" width="9.342" height="7" transform="matrix(1,0,0,1,0,0)" fill="rgb(233,30,99)"/><rect x="18.665" y="133" width="9.342" height="7" transform="matrix(1,0,0,1,0,0)" fill="rgb(156,39,176)"/><rect x="27.998" y="133" width="9.342" height="7" transform="matrix(1,0,0,1,0,0)" fill="rgb(63,81,181)"/><rect x="37.331" y="133" width="9.342" height="7" transform="matrix(1,0,0,1,0,0)" fill="rgb(33,150,243)"/><rect x="46.663" y="133" width="9.342" height="7" transform="matrix(1,0,0,1,0,0)" fill="rgb(3,169,244)"/><rect x="55.996" y="133" width="9.342" height="7" transform="matrix(1,0,0,1,0,0)" fill="rgb(0,188,212)"/><rect x="65.329" y="133" width="9.342" height="7" transform="matrix(1,0,0,1,0,0)" fill="rgb(0,150,136)"/><rect x="74.661" y="133" width="9.342" height="7" transform="matrix(1,0,0,1,0,0)" fill="rgb(76,175,80)"/><rect x="83.994" y="133" width="9.342" height="7" transform="matrix(1,0,0,1,0,0)" fill="rgb(139,195,74)"/><rect x="93.327" y="133" width="9.342" height="7" transform="matrix(1,0,0,1,0,0)" fill="rgb(205,220,57)"/><rect x="102.66" y="133" width="9.342" height="7" transform="matrix(1,0,0,1,0,0)" fill="rgb(255,235,59)"/><rect x="111.992" y="133" width="9.342" height="7" transform="matrix(1,0,0,1,0,0)" fill="rgb(255,193,7)"/><rect x="121.325" y="133" width="9.342" height="7" transform="matrix(1,0,0,1,0,0)" fill="rgb(255,152,0)"/><rect x="130.658" y="133" width="9.342" height="7" transform="matrix(1,0,0,1,0,0)" fill="rgb(255,87,34)"/></g><path d=" M 51.605 26.583 C 53.321 24.973 55.214 23.616 57.228 22.522 L 59.999 27.921 C 58.645 28.669 57.362 29.57 56.18 30.62 L 51.605 26.583 Z  M 66.653 19.444 C 68.88 19.143 71.146 19.113 73.397 19.366 L 72.464 25.367 C 70.967 25.217 69.463 25.226 67.979 25.391 L 66.653 19.444 Z  M 82.797 22.204 C 83.871 22.756 84.921 23.386 85.939 24.094 C 86.775 24.676 87.569 25.296 88.319 25.95 L 84.031 30.264 C 83.535 29.847 83.016 29.45 82.475 29.073 C 81.793 28.599 81.093 28.17 80.378 27.785 L 82.797 22.204 Z  M 94.433 33.633 C 95.501 35.631 96.311 37.746 96.853 39.925 L 90.839 40.895 C 90.443 39.456 89.897 38.057 89.204 36.722 L 94.433 33.633 Z " fill-rule="evenodd" fill="rgb(255,235,59)"/><path d=" M 95.501 18.727 C 94.329 17.67 93.077 16.674 91.748 15.749 C 90.165 14.648 88.527 13.685 86.847 12.857 L 84.385 18.54 C 85.696 19.201 86.976 19.962 88.216 20.825 C 89.245 21.541 90.218 22.307 91.135 23.119 L 95.501 18.727 Z  M 103.21 28.448 C 104.922 31.554 106.179 34.872 106.96 38.294 L 100.841 39.281 C 100.197 36.615 99.207 34.028 97.882 31.595 L 103.21 28.448 Z  M 74.012 15.407 C 71.263 15.078 68.492 15.113 65.773 15.502 L 64.425 9.452 C 67.896 8.911 71.445 8.852 74.962 9.294 L 74.012 15.407 Z  M 55.368 18.897 C 52.901 20.212 50.588 21.866 48.507 23.848 L 43.855 19.743 C 46.471 17.18 49.404 15.057 52.544 13.395 L 55.368 18.897 Z " fill-rule="evenodd" fill="rgb(255,193,7)"/><path d=" M 22.395 111.311 L 22.395 112.775 L 20.706 112.775 L 20.706 118.461 L 18.756 118.461 L 18.756 112.775 L 17.682 112.775 L 17.682 111.835 L 18.756 111.311 L 18.756 110.787 L 18.756 110.787 Q 18.756 109.565 19.357 109.002 L 19.357 109.002 L 19.357 109.002 Q 19.958 108.44 21.282 108.44 L 21.282 108.44 L 21.282 108.44 Q 22.292 108.44 23.079 108.74 L 23.079 108.74 L 22.58 110.173 L 22.58 110.173 Q 21.992 109.987 21.493 109.987 L 21.493 109.987 L 21.493 109.987 Q 21.077 109.987 20.892 110.233 L 20.892 110.233 L 20.892 110.233 Q 20.706 110.48 20.706 110.863 L 20.706 110.863 L 20.706 111.311 L 22.395 111.311 Z  M 23.431 109.463 L 23.431 109.463 L 23.431 109.463 Q 23.431 108.51 24.492 108.51 L 24.492 108.51 L 24.492 108.51 Q 25.554 108.51 25.554 109.463 L 25.554 109.463 L 25.554 109.463 Q 25.554 109.917 25.288 110.169 L 25.288 110.169 L 25.288 110.169 Q 25.023 110.422 24.492 110.422 L 24.492 110.422 L 24.492 110.422 Q 23.431 110.422 23.431 109.463 Z  M 25.464 111.311 L 25.464 118.461 L 23.514 118.461 L 23.514 111.311 L 25.464 111.311 Z  M 31.501 111.177 L 31.501 111.177 L 31.501 111.177 Q 31.898 111.177 32.16 111.234 L 32.16 111.234 L 32.013 113.063 L 32.013 113.063 Q 31.776 112.999 31.437 112.999 L 31.437 112.999 L 31.437 112.999 Q 30.504 112.999 29.982 113.479 L 29.982 113.479 L 29.982 113.479 Q 29.461 113.958 29.461 114.822 L 29.461 114.822 L 29.461 118.461 L 27.511 118.461 L 27.511 111.311 L 28.988 111.311 L 29.276 112.513 L 29.372 112.513 L 29.372 112.513 Q 29.704 111.912 30.27 111.544 L 30.27 111.544 L 30.27 111.544 Q 30.836 111.177 31.501 111.177 Z  M 39.859 114.873 L 39.859 118.461 L 37.909 118.461 L 37.909 114.285 L 37.909 114.285 Q 37.909 113.511 37.65 113.124 L 37.65 113.124 L 37.65 113.124 Q 37.391 112.737 36.835 112.737 L 36.835 112.737 L 36.835 112.737 Q 36.086 112.737 35.747 113.287 L 35.747 113.287 L 35.747 113.287 Q 35.409 113.837 35.409 115.097 L 35.409 115.097 L 35.409 118.461 L 33.458 118.461 L 33.458 111.311 L 34.948 111.311 L 35.21 112.225 L 35.319 112.225 L 35.319 112.225 Q 35.607 111.733 36.15 111.455 L 36.15 111.455 L 36.15 111.455 Q 36.694 111.177 37.397 111.177 L 37.397 111.177 L 37.397 111.177 Q 39.003 111.177 39.572 112.225 L 39.572 112.225 L 39.744 112.225 L 39.744 112.225 Q 40.032 111.727 40.592 111.452 L 40.592 111.452 L 40.592 111.452 Q 41.151 111.177 41.855 111.177 L 41.855 111.177 L 41.855 111.177 Q 43.07 111.177 43.693 111.8 L 43.693 111.8 L 43.693 111.8 Q 44.317 112.424 44.317 113.799 L 44.317 113.799 L 44.317 118.461 L 42.36 118.461 L 42.36 114.285 L 42.36 114.285 Q 42.36 113.511 42.101 113.124 L 42.101 113.124 L 42.101 113.124 Q 41.842 112.737 41.286 112.737 L 41.286 112.737 L 41.286 112.737 Q 40.569 112.737 40.214 113.249 L 40.214 113.249 L 40.214 113.249 Q 39.859 113.76 39.859 114.873 L 39.859 114.873 Z  M 49.279 112.564 L 49.279 112.564 L 49.279 112.564 Q 48.659 112.564 48.307 112.958 L 48.307 112.958 L 48.307 112.958 Q 47.956 113.351 47.904 114.074 L 47.904 114.074 L 50.641 114.074 L 50.641 114.074 Q 50.629 113.351 50.264 112.958 L 50.264 112.958 L 50.264 112.958 Q 49.9 112.564 49.279 112.564 Z  M 49.554 118.588 L 49.554 118.588 L 49.554 118.588 Q 47.828 118.588 46.856 117.636 L 46.856 117.636 L 46.856 117.636 Q 45.884 116.683 45.884 114.937 L 45.884 114.937 L 45.884 114.937 Q 45.884 113.14 46.782 112.158 L 46.782 112.158 L 46.782 112.158 Q 47.681 111.177 49.267 111.177 L 49.267 111.177 L 49.267 111.177 Q 50.782 111.177 51.626 112.04 L 51.626 112.04 L 51.626 112.04 Q 52.47 112.903 52.47 114.425 L 52.47 114.425 L 52.47 115.372 L 47.86 115.372 L 47.86 115.372 Q 47.892 116.203 48.352 116.67 L 48.352 116.67 L 48.352 116.67 Q 48.813 117.137 49.644 117.137 L 49.644 117.137 L 49.644 117.137 Q 50.29 117.137 50.865 117.002 L 50.865 117.002 L 50.865 117.002 Q 51.441 116.868 52.068 116.574 L 52.068 116.574 L 52.068 118.083 L 52.068 118.083 Q 51.556 118.339 50.974 118.464 L 50.974 118.464 L 50.974 118.464 Q 50.392 118.588 49.554 118.588 Z  M 60.656 113.799 L 60.656 118.461 L 58.706 118.461 L 58.706 114.285 L 58.706 114.285 Q 58.706 113.511 58.431 113.124 L 58.431 113.124 L 58.431 113.124 Q 58.156 112.737 57.554 112.737 L 57.554 112.737 L 57.554 112.737 Q 56.736 112.737 56.371 113.284 L 56.371 113.284 L 56.371 113.284 Q 56.007 113.831 56.007 115.097 L 56.007 115.097 L 56.007 118.461 L 54.056 118.461 L 54.056 111.311 L 55.546 111.311 L 55.809 112.225 L 55.917 112.225 L 55.917 112.225 Q 56.244 111.707 56.816 111.442 L 56.816 111.442 L 56.816 111.442 Q 57.388 111.177 58.117 111.177 L 58.117 111.177 L 58.117 111.177 Q 59.364 111.177 60.01 111.851 L 60.01 111.851 L 60.01 111.851 Q 60.656 112.526 60.656 113.799 L 60.656 113.799 Z  M 66.616 111.311 L 66.616 112.775 L 64.928 112.775 L 64.928 118.461 L 62.977 118.461 L 62.977 112.775 L 61.903 112.775 L 61.903 111.835 L 62.977 111.311 L 62.977 110.787 L 62.977 110.787 Q 62.977 109.565 63.579 109.002 L 63.579 109.002 L 63.579 109.002 Q 64.18 108.44 65.503 108.44 L 65.503 108.44 L 65.503 108.44 Q 66.514 108.44 67.3 108.74 L 67.3 108.74 L 66.802 110.173 L 66.802 110.173 Q 66.213 109.987 65.715 109.987 L 65.715 109.987 L 65.715 109.987 Q 65.299 109.987 65.113 110.233 L 65.113 110.233 L 65.113 110.233 Q 64.928 110.48 64.928 110.863 L 64.928 110.863 L 64.928 111.311 L 66.616 111.311 Z  M 74.297 118.461 L 72.8 118.461 L 72.538 117.546 L 72.436 117.546 L 72.436 117.546 Q 72.122 118.045 71.547 118.317 L 71.547 118.317 L 71.547 118.317 Q 70.971 118.588 70.236 118.588 L 70.236 118.588 L 70.236 118.588 Q 68.976 118.588 68.336 117.914 L 68.336 117.914 L 68.336 117.914 Q 67.697 117.239 67.697 115.973 L 67.697 115.973 L 67.697 111.311 L 69.647 111.311 L 69.647 115.487 L 69.647 115.487 Q 69.647 116.261 69.922 116.648 L 69.922 116.648 L 69.922 116.648 Q 70.197 117.034 70.799 117.034 L 70.799 117.034 L 70.799 117.034 Q 71.617 117.034 71.982 116.488 L 71.982 116.488 L 71.982 116.488 Q 72.346 115.941 72.346 114.675 L 72.346 114.675 L 72.346 111.311 L 74.297 111.311 L 74.297 118.461 Z  M 82.943 113.799 L 82.943 118.461 L 80.992 118.461 L 80.992 114.285 L 80.992 114.285 Q 80.992 113.511 80.717 113.124 L 80.717 113.124 L 80.717 113.124 Q 80.442 112.737 79.841 112.737 L 79.841 112.737 L 79.841 112.737 Q 79.023 112.737 78.658 113.284 L 78.658 113.284 L 78.658 113.284 Q 78.294 113.831 78.294 115.097 L 78.294 115.097 L 78.294 118.461 L 76.343 118.461 L 76.343 111.311 L 77.833 111.311 L 78.095 112.225 L 78.204 112.225 L 78.204 112.225 Q 78.53 111.707 79.102 111.442 L 79.102 111.442 L 79.102 111.442 Q 79.675 111.177 80.404 111.177 L 80.404 111.177 L 80.404 111.177 Q 81.651 111.177 82.297 111.851 L 82.297 111.851 L 82.297 111.851 Q 82.943 112.526 82.943 113.799 L 82.943 113.799 Z  M 86.799 114.572 L 86.824 114.572 L 87.675 113.485 L 89.677 111.311 L 91.877 111.311 L 89.037 114.413 L 92.049 118.461 L 89.798 118.461 L 87.739 115.564 L 86.901 116.235 L 86.901 118.461 L 84.951 118.461 L 84.951 108.51 L 86.901 108.51 L 86.901 112.948 L 86.799 114.572 Z  M 92.797 117.546 L 92.797 117.546 L 92.797 117.546 Q 92.797 117.009 93.085 116.734 L 93.085 116.734 L 93.085 116.734 Q 93.373 116.459 93.923 116.459 L 93.923 116.459 L 93.923 116.459 Q 94.454 116.459 94.745 116.74 L 94.745 116.74 L 94.745 116.74 Q 95.036 117.022 95.036 117.546 L 95.036 117.546 L 95.036 117.546 Q 95.036 118.051 94.741 118.342 L 94.741 118.342 L 94.741 118.342 Q 94.447 118.633 93.923 118.633 L 93.923 118.633 L 93.923 118.633 Q 93.386 118.633 93.092 118.349 L 93.092 118.349 L 93.092 118.349 Q 92.797 118.064 92.797 117.546 Z  M 99.71 118.588 L 99.71 118.588 L 99.71 118.588 Q 96.372 118.588 96.372 114.924 L 96.372 114.924 L 96.372 114.924 Q 96.372 113.102 97.28 112.139 L 97.28 112.139 L 97.28 112.139 Q 98.188 111.177 99.883 111.177 L 99.883 111.177 L 99.883 111.177 Q 101.124 111.177 102.109 111.663 L 102.109 111.663 L 101.533 113.172 L 101.533 113.172 Q 101.073 112.986 100.676 112.868 L 100.676 112.868 L 100.676 112.868 Q 100.28 112.75 99.883 112.75 L 99.883 112.75 L 99.883 112.75 Q 98.361 112.75 98.361 114.911 L 98.361 114.911 L 98.361 114.911 Q 98.361 117.009 99.883 117.009 L 99.883 117.009 L 99.883 117.009 Q 100.446 117.009 100.925 116.859 L 100.925 116.859 L 100.925 116.859 Q 101.405 116.708 101.885 116.389 L 101.885 116.389 L 101.885 118.058 L 101.885 118.058 Q 101.411 118.358 100.929 118.473 L 100.929 118.473 L 100.929 118.473 Q 100.446 118.588 99.71 118.588 Z  M 105.095 114.873 L 105.095 114.873 L 105.095 114.873 Q 105.095 115.935 105.444 116.478 L 105.444 116.478 L 105.444 116.478 Q 105.792 117.022 106.579 117.022 L 106.579 117.022 L 106.579 117.022 Q 107.359 117.022 107.701 116.481 L 107.701 116.481 L 107.701 116.481 Q 108.043 115.941 108.043 114.873 L 108.043 114.873 L 108.043 114.873 Q 108.043 113.811 107.698 113.281 L 107.698 113.281 L 107.698 113.281 Q 107.352 112.75 106.566 112.75 L 106.566 112.75 L 106.566 112.75 Q 105.786 112.75 105.44 113.277 L 105.44 113.277 L 105.44 113.277 Q 105.095 113.805 105.095 114.873 Z  M 110.038 114.873 L 110.038 114.873 L 110.038 114.873 Q 110.038 116.619 109.117 117.604 L 109.117 117.604 L 109.117 117.604 Q 108.197 118.588 106.553 118.588 L 106.553 118.588 L 106.553 118.588 Q 105.523 118.588 104.737 118.138 L 104.737 118.138 L 104.737 118.138 Q 103.95 117.687 103.528 116.843 L 103.528 116.843 L 103.528 116.843 Q 103.106 115.998 103.106 114.873 L 103.106 114.873 L 103.106 114.873 Q 103.106 113.121 104.021 112.149 L 104.021 112.149 L 104.021 112.149 Q 104.935 111.177 106.591 111.177 L 106.591 111.177 L 106.591 111.177 Q 107.621 111.177 108.408 111.624 L 108.408 111.624 L 108.408 111.624 Q 109.194 112.072 109.616 112.91 L 109.616 112.91 L 109.616 112.91 Q 110.038 113.747 110.038 114.873 Z  M 118.051 114.873 L 118.051 118.461 L 116.101 118.461 L 116.101 114.285 L 116.101 114.285 Q 116.101 113.511 115.842 113.124 L 115.842 113.124 L 115.842 113.124 Q 115.583 112.737 115.026 112.737 L 115.026 112.737 L 115.026 112.737 Q 114.278 112.737 113.939 113.287 L 113.939 113.287 L 113.939 113.287 Q 113.6 113.837 113.6 115.097 L 113.6 115.097 L 113.6 118.461 L 111.65 118.461 L 111.65 111.311 L 113.14 111.311 L 113.402 112.225 L 113.511 112.225 L 113.511 112.225 Q 113.799 111.733 114.342 111.455 L 114.342 111.455 L 114.342 111.455 Q 114.886 111.177 115.589 111.177 L 115.589 111.177 L 115.589 111.177 Q 117.194 111.177 117.764 112.225 L 117.764 112.225 L 117.936 112.225 L 117.936 112.225 Q 118.224 111.727 118.784 111.452 L 118.784 111.452 L 118.784 111.452 Q 119.343 111.177 120.047 111.177 L 120.047 111.177 L 120.047 111.177 Q 121.262 111.177 121.885 111.8 L 121.885 111.8 L 121.885 111.8 Q 122.509 112.424 122.509 113.799 L 122.509 113.799 L 122.509 118.461 L 120.552 118.461 L 120.552 114.285 L 120.552 114.285 Q 120.552 113.511 120.293 113.124 L 120.293 113.124 L 120.293 113.124 Q 120.034 112.737 119.477 112.737 L 119.477 112.737 L 119.477 112.737 Q 118.761 112.737 118.406 113.249 L 118.406 113.249 L 118.406 113.249 Q 118.051 113.76 118.051 114.873 L 118.051 114.873 Z " fill-rule="evenodd" fill="rgb(255,255,255)"/><path d=" M 30.708 76.423 L 24.215 76.423 L 16.365 76.423 C 15.414 76.423 15.028 75.754 15.504 74.931 L 19.429 68.133 L 21.957 63.754 C 19.683 62.887 18.067 60.685 18.067 58.108 C 18.067 54.773 20.774 52.066 24.109 52.066 C 27.443 52.066 30.15 54.773 30.15 58.108 C 30.15 60.619 28.615 62.774 26.434 63.685 L 29.001 68.133 L 32.248 73.756 L 30.708 76.423 Z " fill="rgb(33,150,243)"/><path d=" M 107.689 73.543 L 110.813 68.133 L 113.341 63.754 C 111.067 62.887 109.451 60.685 109.451 58.108 C 109.451 54.773 112.158 52.066 115.493 52.066 C 118.827 52.066 121.534 54.773 121.534 58.108 C 121.534 60.619 119.999 62.774 117.818 63.685 L 120.385 68.133 L 124.31 74.931 C 124.786 75.754 124.4 76.423 123.449 76.423 L 115.599 76.423 L 109.352 76.423 L 107.689 73.543 Z " fill="rgb(255,87,34)"/><path d=" M 50.5 82.142 L 43.61 82.142 L 31.963 82.142 C 30.551 82.142 29.979 81.15 30.684 79.928 L 36.508 69.841 L 40.259 63.344 C 36.886 62.056 34.487 58.788 34.487 54.965 C 34.487 50.017 38.504 46 43.452 46 C 48.4 46 52.417 50.017 52.417 54.965 C 52.417 58.691 50.14 61.889 46.902 63.241 L 50.712 69.841 L 54.157 75.807 L 50.5 82.142 Z " fill="rgb(205,220,57)"/><path d=" M 64.466 61.417 L 58.171 72.319 L 48.398 89.247 C 47.214 91.298 48.175 92.962 50.543 92.962 L 70.089 92.962 L 89.635 92.962 C 92.004 92.962 92.965 91.298 91.781 89.247 L 82.008 72.319 L 75.614 61.245 C 81.047 58.975 84.869 53.608 84.869 47.356 C 84.869 39.053 78.128 32.312 69.825 32.312 C 61.521 32.312 54.78 39.053 54.78 47.356 C 54.78 53.772 58.805 59.255 64.466 61.417 Z " fill="rgb(255,235,59)"/><path d=" M 85.869 75.865 L 89.347 69.841 L 93.098 63.344 C 89.725 62.056 87.327 58.788 87.327 54.965 C 87.327 50.017 91.344 46 96.292 46 C 101.24 46 105.257 50.017 105.257 54.965 C 105.257 58.691 102.979 61.889 99.742 63.241 L 103.552 69.841 L 109.376 79.928 C 110.081 81.15 109.508 82.142 108.097 82.142 L 96.45 82.142 L 89.493 82.142 L 85.869 75.865 Z " fill="rgb(255,152,0)"/></g></svg>