<?xml version="1.0" standalone="no"?><!-- Generator: Gravit.io --><svg xmlns="http://www.w3.org/2000/svg" xmlns:xlink="http://www.w3.org/1999/xlink" style="isolation:isolate" viewBox="0 0 140 140" width="140" height="140"><rect x="0" y="0" width="140" height="133" transform="matrix(1,0,0,1,0,0)" fill="rgb(0,0,0)"/><g style="opacity:0.16;"><rect x="0" y="0" width="9.342" height="132.814" transform="matrix(1,0,0,1,0,0)" fill="rgb(244,67,54)"/><rect x="9.333" y="0" width="9.342" height="132.814" transform="matrix(1,0,0,1,0,0)" fill="rgb(233,30,99)"/><rect x="18.665" y="0" width="9.342" height="132.814" transform="matrix(1,0,0,1,0,0)" fill="rgb(156,39,176)"/><rect x="27.998" y="0" width="9.342" height="132.814" transform="matrix(1,0,0,1,0,0)" fill="rgb(63,81,181)"/><rect x="37.331" y="0" width="9.342" height="132.814" transform="matrix(1,0,0,1,0,0)" fill="rgb(33,150,243)"/><rect x="46.663" y="0" width="9.342" height="132.814" transform="matrix(1,0,0,1,0,0)" fill="rgb(3,169,244)"/><rect x="55.996" y="0" width="9.342" height="132.814" transform="matrix(1,0,0,1,0,0)" fill="rgb(0,188,212)"/><rect x="65.329" y="0" width="9.342" height="132.814" transform="matrix(1,0,0,1,0,0)" fill="rgb(0,150,136)"/><rect x="74.661" y="0" width="9.342" height="132.814" transform="matrix(1,0,0,1,0,0)" fill="rgb(76,175,80)"/><rect x="83.994" y="0" width="9.342" height="132.814" transform="matrix(1,0,0,1,0,0)" fill="rgb(139,195,74)"/><rect x="93.327" y="0" width="9.342" height="132.814" transform="matrix(1,0,0,1,0,0)" fill="rgb(205,220,57)"/><rect x="102.66" y="0" width="9.342" height="132.814" transform="matrix(1,0,0,1,0,0)" fill="rgb(255,235,59)"/><rect x="111.992" y="0" width="9.342" height="132.814" transform="matrix(1,0,0,1,0,0)" fill="rgb(255,193,7)"/><rect x="121.325" y="0" width="9.342" height="132.814" transform="matrix(1,0,0,1,0,0)" fill="rgb(255,152,0)"/><rect x="130.658" y="0" width="9.342" height="132.814" transform="matrix(1,0,0,1,0,0)" fill="rgb(255,87,34)"/></g><g><rect x="0" y="133" width="9.342" height="7" transform="matrix(1,0,0,1,0,0)" fill="rgb(244,67,54)"/><rect x="9.333" y="133" width="9.342" height="7" transform="matrix(1,0,0,1,0,0)" fill="rgb(233,30,99)"/><rect x="18.665" y="133" width="9.342" height="7" transform="matrix(1,0,0,1,0,0)" fill="rgb(156,39,176)"/><rect x="27.998" y="133" width="9.342" height="7" transform="matrix(1,0,0,1,0,0)" fill="rgb(63,81,181)"/><rect x="37.331" y="133" width="9.342" height="7" transform="matrix(1,0,0,1,0,0)" fill="rgb(33,150,243)"/><rect x="46.663" y="133" width="9.342" height="7" transform="matrix(1,0,0,1,0,0)" fill="rgb(3,169,244)"/><rect x="55.996" y="133" width="9.342" height="7" transform="matrix(1,0,0,1,0,0)" fill="rgb(0,188,212)"/><rect x="65.329" y="133" width="9.342" height="7" transform="matrix(1,0,0,1,0,0)" fill="rgb(0,150,136)"/><rect x="74.661" y="133" width="9.342" height="7" transform="matrix(1,0,0,1,0,0)" fill="rgb(76,175,80)"/><rect x="83.994" y="133" width="9.342" height="7" transform="matrix(1,0,0,1,0,0)" fill="rgb(139,195,74)"/><rect x="93.327" y="133" width="9.342" height="7" transform="matrix(1,0,0,1,0,0)" fill="rgb(205,220,57)"/><rect x="102.66" y="133" width="9.342" height="7" transform="matrix(1,0,0,1,0,0)" fill="rgb(255,235,59)"/><rect x="111.992" y="133" width="9.342" height="7" transform="matrix(1,0,0,1,0,0)" fill="rgb(255,193,7)"/><rect x="121.325" y="133" width="9.342" height="7" transform="matrix(1,0,0,1,0,0)" fill="rgb(255,152,0)"/><rect x="130.658" y="133" width="9.342" height="7" transform="matrix(1,0,0,1,0,0)" fill="rgb(255,87,34)"/></g><path d=" M 35.179 121.45 L 33.817 121.45 L 33.44 120.477 L 33.389 120.477 L 33.389 120.477 Q 32.896 121.098 32.375 121.338 L 32.375 121.338 L 32.375 121.338 Q 31.854 121.577 31.016 121.577 L 31.016 121.577 L 31.016 121.577 Q 29.987 121.577 29.395 120.989 L 29.395 120.989 L 29.395 120.989 Q 28.804 120.401 28.804 119.314 L 28.804 119.314 L 28.804 119.314 Q 28.804 118.175 29.6 117.635 L 29.6 117.635 L 29.6 117.635 Q 30.396 117.095 32.001 117.037 L 32.001 117.037 L 33.242 116.999 L 33.242 116.685 L 33.242 116.685 Q 33.242 115.598 32.129 115.598 L 32.129 115.598 L 32.129 115.598 Q 31.272 115.598 30.115 116.116 L 30.115 116.116 L 29.469 114.799 L 29.469 114.799 Q 30.703 114.153 32.206 114.153 L 32.206 114.153 L 32.206 114.153 Q 33.645 114.153 34.412 114.78 L 34.412 114.78 L 34.412 114.78 Q 35.179 115.406 35.179 116.685 L 35.179 116.685 L 35.179 121.45 L 35.179 121.45 Z  M 33.242 118.725 L 33.242 118.137 L 32.487 118.162 L 32.487 118.162 Q 31.637 118.188 31.221 118.469 L 31.221 118.469 L 31.221 118.469 Q 30.805 118.751 30.805 119.326 L 30.805 119.326 L 30.805 119.326 Q 30.805 120.151 31.752 120.151 L 31.752 120.151 L 31.752 120.151 Q 32.43 120.151 32.836 119.761 L 32.836 119.761 L 32.836 119.761 Q 33.242 119.371 33.242 118.725 L 33.242 118.725 L 33.242 118.725 Z  M 43.749 121.45 L 42.252 121.45 L 41.99 120.535 L 41.888 120.535 L 41.888 120.535 Q 41.574 121.034 40.999 121.306 L 40.999 121.306 L 40.999 121.306 Q 40.423 121.577 39.688 121.577 L 39.688 121.577 L 39.688 121.577 Q 38.428 121.577 37.789 120.903 L 37.789 120.903 L 37.789 120.903 Q 37.149 120.228 37.149 118.962 L 37.149 118.962 L 37.149 114.3 L 39.1 114.3 L 39.1 118.476 L 39.1 118.476 Q 39.1 119.25 39.375 119.637 L 39.375 119.637 L 39.375 119.637 Q 39.65 120.023 40.251 120.023 L 40.251 120.023 L 40.251 120.023 Q 41.069 120.023 41.434 119.477 L 41.434 119.477 L 41.434 119.477 Q 41.798 118.93 41.798 117.664 L 41.798 117.664 L 41.798 114.3 L 43.749 114.3 L 43.749 121.45 L 43.749 121.45 Z  M 48.807 120.023 L 48.807 120.023 L 48.807 120.023 Q 49.319 120.023 50.035 119.8 L 50.035 119.8 L 50.035 121.251 L 50.035 121.251 Q 49.306 121.577 48.244 121.577 L 48.244 121.577 L 48.244 121.577 Q 47.074 121.577 46.54 120.986 L 46.54 120.986 L 46.54 120.986 Q 46.006 120.394 46.006 119.211 L 46.006 119.211 L 46.006 115.764 L 45.072 115.764 L 45.072 114.939 L 46.147 114.287 L 46.71 112.778 L 47.957 112.778 L 47.957 114.3 L 49.958 114.3 L 49.958 115.764 L 47.957 115.764 L 47.957 119.211 L 47.957 119.211 Q 47.957 119.627 48.19 119.825 L 48.19 119.825 L 48.19 119.825 Q 48.423 120.023 48.807 120.023 Z  M 53.034 117.862 L 53.034 117.862 L 53.034 117.862 Q 53.034 118.923 53.383 119.467 L 53.383 119.467 L 53.383 119.467 Q 53.731 120.011 54.518 120.011 L 54.518 120.011 L 54.518 120.011 Q 55.298 120.011 55.64 119.47 L 55.64 119.47 L 55.64 119.47 Q 55.982 118.93 55.982 117.862 L 55.982 117.862 L 55.982 117.862 Q 55.982 116.8 55.637 116.27 L 55.637 116.27 L 55.637 116.27 Q 55.292 115.739 54.505 115.739 L 54.505 115.739 L 54.505 115.739 Q 53.725 115.739 53.38 116.266 L 53.38 116.266 L 53.38 116.266 Q 53.034 116.794 53.034 117.862 Z  M 57.978 117.862 L 57.978 117.862 L 57.978 117.862 Q 57.978 119.608 57.057 120.593 L 57.057 120.593 L 57.057 120.593 Q 56.136 121.577 54.492 121.577 L 54.492 121.577 L 54.492 121.577 Q 53.463 121.577 52.676 121.127 L 52.676 121.127 L 52.676 121.127 Q 51.89 120.676 51.467 119.832 L 51.467 119.832 L 51.467 119.832 Q 51.045 118.987 51.045 117.862 L 51.045 117.862 L 51.045 117.862 Q 51.045 116.11 51.96 115.138 L 51.96 115.138 L 51.96 115.138 Q 52.874 114.166 54.531 114.166 L 54.531 114.166 L 54.531 114.166 Q 55.56 114.166 56.347 114.613 L 56.347 114.613 L 56.347 114.613 Q 57.133 115.061 57.556 115.899 L 57.556 115.899 L 57.556 115.899 Q 57.978 116.736 57.978 117.862 Z  M 65.492 121.45 L 64.13 121.45 L 63.752 120.477 L 63.701 120.477 L 63.701 120.477 Q 63.209 121.098 62.688 121.338 L 62.688 121.338 L 62.688 121.338 Q 62.166 121.577 61.329 121.577 L 61.329 121.577 L 61.329 121.577 Q 60.299 121.577 59.707 120.989 L 59.707 120.989 L 59.707 120.989 Q 59.116 120.401 59.116 119.314 L 59.116 119.314 L 59.116 119.314 Q 59.116 118.175 59.912 117.635 L 59.912 117.635 L 59.912 117.635 Q 60.708 117.095 62.313 117.037 L 62.313 117.037 L 63.554 116.999 L 63.554 116.685 L 63.554 116.685 Q 63.554 115.598 62.441 115.598 L 62.441 115.598 L 62.441 115.598 Q 61.584 115.598 60.427 116.116 L 60.427 116.116 L 59.781 114.799 L 59.781 114.799 Q 61.015 114.153 62.518 114.153 L 62.518 114.153 L 62.518 114.153 Q 63.957 114.153 64.724 114.78 L 64.724 114.78 L 64.724 114.78 Q 65.492 115.406 65.492 116.685 L 65.492 116.685 L 65.492 121.45 L 65.492 121.45 Z  M 63.554 118.725 L 63.554 118.137 L 62.799 118.162 L 62.799 118.162 Q 61.949 118.188 61.533 118.469 L 61.533 118.469 L 61.533 118.469 Q 61.118 118.751 61.118 119.326 L 61.118 119.326 L 61.118 119.326 Q 61.118 120.151 62.064 120.151 L 62.064 120.151 L 62.064 120.151 Q 62.742 120.151 63.148 119.761 L 63.148 119.761 L 63.148 119.761 Q 63.554 119.371 63.554 118.725 L 63.554 118.725 L 63.554 118.725 Z  M 71.228 114.3 L 73.722 114.3 L 73.722 115.291 L 72.603 115.579 L 72.603 115.579 Q 72.91 116.059 72.91 116.653 L 72.91 116.653 L 72.91 116.653 Q 72.91 117.804 72.107 118.447 L 72.107 118.447 L 72.107 118.447 Q 71.305 119.09 69.879 119.09 L 69.879 119.09 L 69.527 119.071 L 69.239 119.039 L 69.239 119.039 Q 68.939 119.269 68.939 119.55 L 68.939 119.55 L 68.939 119.55 Q 68.939 119.972 70.013 119.972 L 70.013 119.972 L 71.228 119.972 L 71.228 119.972 Q 72.405 119.972 73.022 120.477 L 73.022 120.477 L 73.022 120.477 Q 73.639 120.983 73.639 121.961 L 73.639 121.961 L 73.639 121.961 Q 73.639 123.215 72.593 123.905 L 72.593 123.905 L 72.593 123.905 Q 71.548 124.596 69.591 124.596 L 69.591 124.596 L 69.591 124.596 Q 68.095 124.596 67.305 124.075 L 67.305 124.075 L 67.305 124.075 Q 66.515 123.553 66.515 122.613 L 66.515 122.613 L 66.515 122.613 Q 66.515 121.968 66.918 121.533 L 66.918 121.533 L 66.918 121.533 Q 67.321 121.098 68.101 120.912 L 68.101 120.912 L 68.101 120.912 Q 67.8 120.784 67.577 120.493 L 67.577 120.493 L 67.577 120.493 Q 67.353 120.202 67.353 119.876 L 67.353 119.876 L 67.353 119.876 Q 67.353 119.467 67.589 119.195 L 67.589 119.195 L 67.589 119.195 Q 67.826 118.923 68.274 118.661 L 68.274 118.661 L 68.274 118.661 Q 67.711 118.418 67.381 117.881 L 67.381 117.881 L 67.381 117.881 Q 67.052 117.344 67.052 116.615 L 67.052 116.615 L 67.052 116.615 Q 67.052 115.445 67.813 114.805 L 67.813 114.805 L 67.813 114.805 Q 68.574 114.166 69.987 114.166 L 69.987 114.166 L 69.987 114.166 Q 70.288 114.166 70.7 114.22 L 70.7 114.22 L 70.7 114.22 Q 71.113 114.274 71.228 114.3 L 71.228 114.3 L 71.228 114.3 Z  M 68.203 122.46 L 68.203 122.46 L 68.203 122.46 Q 68.203 122.863 68.59 123.093 L 68.59 123.093 L 68.59 123.093 Q 68.977 123.323 69.674 123.323 L 69.674 123.323 L 69.674 123.323 Q 70.723 123.323 71.318 123.035 L 71.318 123.035 L 71.318 123.035 Q 71.912 122.748 71.912 122.249 L 71.912 122.249 L 71.912 122.249 Q 71.912 121.846 71.561 121.693 L 71.561 121.693 L 71.561 121.693 Q 71.209 121.539 70.473 121.539 L 70.473 121.539 L 69.463 121.539 L 69.463 121.539 Q 68.926 121.539 68.565 121.792 L 68.565 121.792 L 68.565 121.792 Q 68.203 122.044 68.203 122.46 Z  M 68.913 116.64 L 68.913 116.64 L 68.913 116.64 Q 68.913 117.222 69.178 117.561 L 69.178 117.561 L 69.178 117.561 Q 69.444 117.9 69.987 117.9 L 69.987 117.9 L 69.987 117.9 Q 70.537 117.9 70.793 117.561 L 70.793 117.561 L 70.793 117.561 Q 71.049 117.222 71.049 116.64 L 71.049 116.64 L 71.049 116.64 Q 71.049 115.349 69.987 115.349 L 69.987 115.349 L 69.987 115.349 Q 68.913 115.349 68.913 116.64 Z  M 74.816 112.452 L 74.816 112.452 L 74.816 112.452 Q 74.816 111.499 75.877 111.499 L 75.877 111.499 L 75.877 111.499 Q 76.939 111.499 76.939 112.452 L 76.939 112.452 L 76.939 112.452 Q 76.939 112.906 76.673 113.158 L 76.673 113.158 L 76.673 113.158 Q 76.408 113.411 75.877 113.411 L 75.877 113.411 L 75.877 113.411 Q 74.816 113.411 74.816 112.452 Z  M 76.849 114.3 L 76.849 121.45 L 74.899 121.45 L 74.899 114.3 L 76.849 114.3 L 76.849 114.3 Z  M 80.846 111.499 L 80.846 121.45 L 78.896 121.45 L 78.896 111.499 L 80.846 111.499 L 80.846 111.499 Z  M 82.618 120.535 L 82.618 120.535 L 82.618 120.535 Q 82.618 119.998 82.905 119.723 L 82.905 119.723 L 82.905 119.723 Q 83.193 119.448 83.743 119.448 L 83.743 119.448 L 83.743 119.448 Q 84.274 119.448 84.565 119.729 L 84.565 119.729 L 84.565 119.729 Q 84.856 120.011 84.856 120.535 L 84.856 120.535 L 84.856 120.535 Q 84.856 121.04 84.562 121.331 L 84.562 121.331 L 84.562 121.331 Q 84.268 121.622 83.743 121.622 L 83.743 121.622 L 83.743 121.622 Q 83.206 121.622 82.912 121.338 L 82.912 121.338 L 82.912 121.338 Q 82.618 121.053 82.618 120.535 Z  M 89.531 121.577 L 89.531 121.577 L 89.531 121.577 Q 86.192 121.577 86.192 117.913 L 86.192 117.913 L 86.192 117.913 Q 86.192 116.091 87.101 115.128 L 87.101 115.128 L 87.101 115.128 Q 88.009 114.166 89.703 114.166 L 89.703 114.166 L 89.703 114.166 Q 90.944 114.166 91.929 114.652 L 91.929 114.652 L 91.353 116.161 L 91.353 116.161 Q 90.893 115.975 90.496 115.857 L 90.496 115.857 L 90.496 115.857 Q 90.1 115.739 89.703 115.739 L 89.703 115.739 L 89.703 115.739 Q 88.181 115.739 88.181 117.9 L 88.181 117.9 L 88.181 117.9 Q 88.181 119.998 89.703 119.998 L 89.703 119.998 L 89.703 119.998 Q 90.266 119.998 90.746 119.848 L 90.746 119.848 L 90.746 119.848 Q 91.225 119.697 91.705 119.378 L 91.705 119.378 L 91.705 121.047 L 91.705 121.047 Q 91.232 121.347 90.749 121.462 L 90.749 121.462 L 90.749 121.462 Q 90.266 121.577 89.531 121.577 Z  M 94.915 117.862 L 94.915 117.862 L 94.915 117.862 Q 94.915 118.923 95.264 119.467 L 95.264 119.467 L 95.264 119.467 Q 95.612 120.011 96.399 120.011 L 96.399 120.011 L 96.399 120.011 Q 97.179 120.011 97.521 119.47 L 97.521 119.47 L 97.521 119.47 Q 97.863 118.93 97.863 117.862 L 97.863 117.862 L 97.863 117.862 Q 97.863 116.8 97.518 116.27 L 97.518 116.27 L 97.518 116.27 Q 97.173 115.739 96.386 115.739 L 96.386 115.739 L 96.386 115.739 Q 95.606 115.739 95.261 116.266 L 95.261 116.266 L 95.261 116.266 Q 94.915 116.794 94.915 117.862 Z  M 99.859 117.862 L 99.859 117.862 L 99.859 117.862 Q 99.859 119.608 98.938 120.593 L 98.938 120.593 L 98.938 120.593 Q 98.017 121.577 96.373 121.577 L 96.373 121.577 L 96.373 121.577 Q 95.344 121.577 94.557 121.127 L 94.557 121.127 L 94.557 121.127 Q 93.77 120.676 93.348 119.832 L 93.348 119.832 L 93.348 119.832 Q 92.926 118.987 92.926 117.862 L 92.926 117.862 L 92.926 117.862 Q 92.926 116.11 93.841 115.138 L 93.841 115.138 L 93.841 115.138 Q 94.755 114.166 96.412 114.166 L 96.412 114.166 L 96.412 114.166 Q 97.441 114.166 98.228 114.613 L 98.228 114.613 L 98.228 114.613 Q 99.014 115.061 99.436 115.899 L 99.436 115.899 L 99.436 115.899 Q 99.859 116.736 99.859 117.862 Z  M 107.871 117.862 L 107.871 121.45 L 105.921 121.45 L 105.921 117.274 L 105.921 117.274 Q 105.921 116.5 105.662 116.113 L 105.662 116.113 L 105.662 116.113 Q 105.403 115.726 104.847 115.726 L 104.847 115.726 L 104.847 115.726 Q 104.098 115.726 103.76 116.276 L 103.76 116.276 L 103.76 116.276 Q 103.421 116.826 103.421 118.086 L 103.421 118.086 L 103.421 121.45 L 101.47 121.45 L 101.47 114.3 L 102.96 114.3 L 103.222 115.214 L 103.331 115.214 L 103.331 115.214 Q 103.619 114.722 104.162 114.444 L 104.162 114.444 L 104.162 114.444 Q 104.706 114.166 105.409 114.166 L 105.409 114.166 L 105.409 114.166 Q 107.015 114.166 107.584 115.214 L 107.584 115.214 L 107.756 115.214 L 107.756 115.214 Q 108.044 114.716 108.604 114.441 L 108.604 114.441 L 108.604 114.441 Q 109.163 114.166 109.867 114.166 L 109.867 114.166 L 109.867 114.166 Q 111.082 114.166 111.705 114.789 L 111.705 114.789 L 111.705 114.789 Q 112.329 115.413 112.329 116.788 L 112.329 116.788 L 112.329 121.45 L 110.372 121.45 L 110.372 117.274 L 110.372 117.274 Q 110.372 116.5 110.113 116.113 L 110.113 116.113 L 110.113 116.113 Q 109.854 115.726 109.298 115.726 L 109.298 115.726 L 109.298 115.726 Q 108.581 115.726 108.226 116.238 L 108.226 116.238 L 108.226 116.238 Q 107.871 116.749 107.871 117.862 L 107.871 117.862 L 107.871 117.862 Z " fill-rule="evenodd" fill="rgb(255,255,255)"/><g><path d=" M 103.518 62.853 L 96.762 61.636 L 110.578 49.189 L 119.184 65.674 L 113.404 64.633 C 110.442 81.162 98.257 94.509 82.372 99.15 L 74.757 90.538 C 89.319 88.499 100.94 77.236 103.518 62.853 Z " fill-rule="evenodd" fill="rgb(139,195,74)"/><path d=" M 76.036 23.299 L 74.82 30.054 L 62.373 16.238 L 78.858 7.632 L 77.817 13.412 C 94.21 16.35 107.473 28.36 112.217 44.053 L 112.217 44.053 L 103.694 51.869 C 101.584 37.397 90.357 25.865 76.036 23.299 Z " fill-rule="evenodd" fill="rgb(255,193,7)"/><path d=" M 64.028 90.345 L 65.18 83.946 L 77.627 97.762 L 61.142 106.368 L 62.247 100.232 C 45.73 97.297 32.379 85.154 27.701 69.306 L 36.34 61.997 C 38.54 76.381 49.754 87.816 64.028 90.345 Z " fill-rule="evenodd" fill="rgb(33,150,243)"/><path d=" M 36.482 50.78 L 43.238 51.997 L 29.422 64.444 L 20.816 47.959 L 26.596 49 C 29.531 32.623 41.519 19.37 57.189 14.613 L 57.189 14.613 L 57.189 14.613 L 65.115 23.113 C 50.613 25.2 39.052 36.439 36.482 50.78 Z " fill-rule="evenodd" fill="rgb(244,67,54)"/><path d=" M 66.912 56.909 C 66.861 55.231 68.181 53.828 69.859 53.777 C 71.536 53.725 72.94 55.046 72.991 56.723 C 73.042 58.401 71.722 59.804 70.045 59.856 C 68.367 59.907 66.963 58.586 66.912 56.909 L 66.912 56.909 L 66.912 56.909 L 66.912 56.909 L 66.912 56.909 L 66.912 56.909 L 66.912 56.909 Z  M 65.148 52.363 C 65.148 51.602 65.765 50.984 66.526 50.984 C 67.287 50.984 67.905 51.602 67.905 52.363 C 67.905 53.124 67.287 53.741 66.526 53.741 C 65.765 53.741 65.148 53.124 65.148 52.363 L 65.148 52.363 L 65.148 52.363 L 65.148 52.363 L 65.148 52.363 L 65.148 52.363 Z  M 62.982 57.577 C 62.982 56.817 63.6 56.199 64.361 56.199 C 65.122 56.199 65.74 56.817 65.74 57.577 C 65.74 58.338 65.122 58.956 64.361 58.956 C 63.6 58.956 62.982 58.338 62.982 57.577 L 62.982 57.577 L 62.982 57.577 L 62.982 57.577 L 62.982 57.577 Z  M 66.562 62.054 C 66.562 61.293 67.18 60.675 67.94 60.675 C 68.701 60.675 69.319 61.293 69.319 62.054 C 69.319 62.815 68.701 63.432 67.94 63.432 C 67.18 63.432 66.562 62.815 66.562 62.054 L 66.562 62.054 L 66.562 62.054 L 66.562 62.054 Z  M 72.301 61.033 C 72.301 60.272 72.919 59.654 73.68 59.654 C 74.441 59.654 75.058 60.272 75.058 61.033 C 75.058 61.794 74.441 62.411 73.68 62.411 C 72.919 62.411 72.301 61.794 72.301 61.033 L 72.301 61.033 L 72.301 61.033 Z  M 74.093 56.056 C 74.093 55.296 74.711 54.678 75.472 54.678 C 76.233 54.678 76.851 55.296 76.851 56.056 C 76.851 56.817 76.233 57.435 75.472 57.435 C 74.711 57.435 74.093 56.817 74.093 56.056 L 74.093 56.056 Z  M 86.191 78.675 L 73.652 66.533 C 72.14 65.069 70.048 65.354 68.983 67.168 L 60.144 82.22 C 59.079 84.034 58.63 83.85 59.141 81.809 L 63.387 64.879 C 63.899 62.838 62.606 61.169 60.502 61.153 L 43.048 61.025 C 40.944 61.009 40.878 60.528 42.902 59.951 L 59.687 55.162 C 61.71 54.585 62.51 52.631 61.471 50.801 L 52.855 35.621 C 51.816 33.791 52.2 33.494 53.712 34.957 L 66.251 47.1 C 67.763 48.563 69.855 48.278 70.92 46.464 L 79.759 31.412 C 80.824 29.598 81.274 29.782 80.762 31.823 L 76.516 48.753 C 76.005 50.794 77.297 52.464 79.401 52.479 L 96.856 52.608 C 98.96 52.623 99.025 53.104 97.002 53.681 L 80.217 58.47 C 78.193 59.047 77.394 61.001 78.432 62.831 L 87.048 78.011 C 88.087 79.841 87.703 80.138 86.191 78.675 L 86.191 78.675 L 86.191 78.675 L 86.191 78.675 L 86.191 78.675 L 86.191 78.675 L 86.191 78.675 Z  M 70.647 51.558 C 70.647 50.797 71.265 50.18 72.026 50.18 C 72.786 50.18 73.404 50.797 73.404 51.558 C 73.404 52.319 72.786 52.937 72.026 52.937 C 71.265 52.937 70.647 52.319 70.647 51.558 Z " fill-rule="evenodd" fill="rgb(255,255,255)"/></g></svg>